# xmcd
#
# Track frame offsets:
#	150
#	13038
#	23937
#	35086
#	53245
#	65212
#	83994
#	96772
#	112553
#	130709
#	141354
#	157382
#	171916
#	184715
#	202894
#
# Disc length: 2877 seconds
# Revision: 0
# Processed by: cddbd v1.5.2PL0 Copyright (c) Steve Scherf et al.
# Submitted via: dBpowerAMP V12.0
#
DISCID=d10b3b0f
DTITLE=The Forge Mountain Diggers - The Forge Mountain Diggers
DYEAR=2006
DGENRE=Folk
TTITLE0=Run Mountain
TTITLE1=Jawbone
TTITLE2=Blackeyed Susie
TTITLE3=Hold the Woodpile Down
TTITLE4=Lost Gal
TTITLE5=My Home's Across the Blue Ridge Mountain
TTITLE6=Callahan
TTITLE7=Ain't Gonna Work Tomorrow
TTITLE8=I've Aways Been a Rambler
TTITLE9=Possum on a Rail
TTITLE10=Raleigh and Spencer
TTITLE11=Likes Likker Better Than Me
TTITLE12=Boatman
TTITLE13=Willow Garden
TTITLE14=Chilly Winds
EXTD=
EXTT0=
EXTT1=
EXTT2=
EXTT3=
EXTT4=
EXTT5=
EXTT6=
EXTT7=
EXTT8=
EXTT9=
EXTT10=
EXTT11=
EXTT12=
EXTT13=
EXTT14=
PLAYORDER=
